<?xml version="1.0" encoding="utf-8" standalone="no"?>
<!DOCTYPE svg PUBLIC "-//W3C//DTD SVG 1.1//EN"
  "http://www.w3.org/Graphics/SVG/1.1/DTD/svg11.dtd">
<!-- Created with matplotlib (http://matplotlib.org/) -->
<svg height="288pt" version="1.1" viewBox="0 0 288 288" width="288pt" xmlns="http://www.w3.org/2000/svg" xmlns:xlink="http://www.w3.org/1999/xlink">
 <defs>
  <style type="text/css">
*{stroke-linecap:butt;stroke-linejoin:round;stroke-miterlimit:100000;}
  </style>
 </defs>
 <g id="figure_1">
  <g id="patch_1">
   <path d="M 0 288 
L 288 288 
L 288 0 
L 0 0 
z
" style="fill:#ffffff;"/>
  </g>
  <g id="axes_1">
   <g id="patch_2">
    <path d="M 51.1375 242.6 
L 273.99375 242.6 
L 273.99375 15.3 
L 51.1375 15.3 
z
" style="fill:#e5e5e5;"/>
   </g>
   <g id="matplotlib.axis_1">
    <g id="xtick_1">
     <g id="line2d_1">
      <path clip-path="url(#p7844591656)" d="M 51.1375 242.6 
L 51.1375 15.3 
" style="fill:none;stroke:#ffffff;stroke-linecap:square;stroke-width:0.5;"/>
     </g>
     <g id="line2d_2">
      <defs>
       <path d="M 0 0 
L 0 4 
" id="m9d18128904" style="stroke:#555555;stroke-width:0.5;"/>
      </defs>
      <g>
       <use style="fill:#555555;stroke:#555555;stroke-width:0.5;" x="51.1375" xlink:href="#m9d18128904" y="242.6"/>
      </g>
     </g>
     <g id="line2d_3">
      <defs>
       <path d="M 0 0 
L 0 -4 
" id="md50a1fa920" style="stroke:#555555;stroke-width:0.5;"/>
      </defs>
      <g>
       <use style="fill:#555555;stroke:#555555;stroke-width:0.5;" x="51.1375" xlink:href="#md50a1fa920" y="15.3"/>
      </g>
     </g>
     <g id="text_1">
      <!-- −4 -->
      <defs>
       <path d="M 10.59375 35.5 
L 73.1875 35.5 
L 73.1875 27.203125 
L 10.59375 27.203125 
z
" id="BitstreamVeraSans-Roman-2212"/>
       <path d="M 37.796875 64.3125 
L 12.890625 25.390625 
L 37.796875 25.390625 
z
M 35.203125 72.90625 
L 47.609375 72.90625 
L 47.609375 25.390625 
L 58.015625 25.390625 
L 58.015625 17.1875 
L 47.609375 17.1875 
L 47.609375 0 
L 37.796875 0 
L 37.796875 17.1875 
L 4.890625 17.1875 
L 4.890625 26.703125 
z
" id="BitstreamVeraSans-Roman-34"/>
      </defs>
      <g style="fill:#555555;" transform="translate(43.76640625 258.1984375)scale(0.1 -0.1)">
       <use xlink:href="#BitstreamVeraSans-Roman-2212"/>
       <use x="83.7890625" xlink:href="#BitstreamVeraSans-Roman-34"/>
      </g>
     </g>
    </g>
    <g id="xtick_2">
     <g id="line2d_4">
      <path clip-path="url(#p7844591656)" d="M 95.70875 242.6 
L 95.70875 15.3 
" style="fill:none;stroke:#ffffff;stroke-linecap:square;stroke-width:0.5;"/>
     </g>
     <g id="line2d_5">
      <g>
       <use style="fill:#555555;stroke:#555555;stroke-width:0.5;" x="95.70875" xlink:href="#m9d18128904" y="242.6"/>
      </g>
     </g>
     <g id="line2d_6">
      <g>
       <use style="fill:#555555;stroke:#555555;stroke-width:0.5;" x="95.70875" xlink:href="#md50a1fa920" y="15.3"/>
      </g>
     </g>
     <g id="text_2">
      <!-- −2 -->
      <defs>
       <path d="M 19.1875 8.296875 
L 53.609375 8.296875 
L 53.609375 0 
L 7.328125 0 
L 7.328125 8.296875 
Q 12.9375 14.109375 22.625 23.890625 
Q 32.328125 33.6875 34.8125 36.53125 
Q 39.546875 41.84375 41.421875 45.53125 
Q 43.3125 49.21875 43.3125 52.78125 
Q 43.3125 58.59375 39.234375 62.25 
Q 35.15625 65.921875 28.609375 65.921875 
Q 23.96875 65.921875 18.8125 64.3125 
Q 13.671875 62.703125 7.8125 59.421875 
L 7.8125 69.390625 
Q 13.765625 71.78125 18.9375 73 
Q 24.125 74.21875 28.421875 74.21875 
Q 39.75 74.21875 46.484375 68.546875 
Q 53.21875 62.890625 53.21875 53.421875 
Q 53.21875 48.921875 51.53125 44.890625 
Q 49.859375 40.875 45.40625 35.40625 
Q 44.1875 33.984375 37.640625 27.21875 
Q 31.109375 20.453125 19.1875 8.296875 
" id="BitstreamVeraSans-Roman-32"/>
      </defs>
      <g style="fill:#555555;" transform="translate(88.33765625 258.1984375)scale(0.1 -0.1)">
       <use xlink:href="#BitstreamVeraSans-Roman-2212"/>
       <use x="83.7890625" xlink:href="#BitstreamVeraSans-Roman-32"/>
      </g>
     </g>
    </g>
    <g id="xtick_3">
     <g id="line2d_7">
      <path clip-path="url(#p7844591656)" d="M 140.28 242.6 
L 140.28 15.3 
" style="fill:none;stroke:#ffffff;stroke-linecap:square;stroke-width:0.5;"/>
     </g>
     <g id="line2d_8">
      <g>
       <use style="fill:#555555;stroke:#555555;stroke-width:0.5;" x="140.28" xlink:href="#m9d18128904" y="242.6"/>
      </g>
     </g>
     <g id="line2d_9">
      <g>
       <use style="fill:#555555;stroke:#555555;stroke-width:0.5;" x="140.28" xlink:href="#md50a1fa920" y="15.3"/>
      </g>
     </g>
     <g id="text_3">
      <!-- 0 -->
      <defs>
       <path d="M 31.78125 66.40625 
Q 24.171875 66.40625 20.328125 58.90625 
Q 16.5 51.421875 16.5 36.375 
Q 16.5 21.390625 20.328125 13.890625 
Q 24.171875 6.390625 31.78125 6.390625 
Q 39.453125 6.390625 43.28125 13.890625 
Q 47.125 21.390625 47.125 36.375 
Q 47.125 51.421875 43.28125 58.90625 
Q 39.453125 66.40625 31.78125 66.40625 
M 31.78125 74.21875 
Q 44.046875 74.21875 50.515625 64.515625 
Q 56.984375 54.828125 56.984375 36.375 
Q 56.984375 17.96875 50.515625 8.265625 
Q 44.046875 -1.421875 31.78125 -1.421875 
Q 19.53125 -1.421875 13.0625 8.265625 
Q 6.59375 17.96875 6.59375 36.375 
Q 6.59375 54.828125 13.0625 64.515625 
Q 19.53125 74.21875 31.78125 74.21875 
" id="BitstreamVeraSans-Roman-30"/>
      </defs>
      <g style="fill:#555555;" transform="translate(137.09875 258.1984375)scale(0.1 -0.1)">
       <use xlink:href="#BitstreamVeraSans-Roman-30"/>
      </g>
     </g>
    </g>
    <g id="xtick_4">
     <g id="line2d_10">
      <path clip-path="url(#p7844591656)" d="M 184.85125 242.6 
L 184.85125 15.3 
" style="fill:none;stroke:#ffffff;stroke-linecap:square;stroke-width:0.5;"/>
     </g>
     <g id="line2d_11">
      <g>
       <use style="fill:#555555;stroke:#555555;stroke-width:0.5;" x="184.85125" xlink:href="#m9d18128904" y="242.6"/>
      </g>
     </g>
     <g id="line2d_12">
      <g>
       <use style="fill:#555555;stroke:#555555;stroke-width:0.5;" x="184.85125" xlink:href="#md50a1fa920" y="15.3"/>
      </g>
     </g>
     <g id="text_4">
      <!-- 2 -->
      <g style="fill:#555555;" transform="translate(181.67 258.1984375)scale(0.1 -0.1)">
       <use xlink:href="#BitstreamVeraSans-Roman-32"/>
      </g>
     </g>
    </g>
    <g id="xtick_5">
     <g id="line2d_13">
      <path clip-path="url(#p7844591656)" d="M 229.4225 242.6 
L 229.4225 15.3 
" style="fill:none;stroke:#ffffff;stroke-linecap:square;stroke-width:0.5;"/>
     </g>
     <g id="line2d_14">
      <g>
       <use style="fill:#555555;stroke:#555555;stroke-width:0.5;" x="229.4225" xlink:href="#m9d18128904" y="242.6"/>
      </g>
     </g>
     <g id="line2d_15">
      <g>
       <use style="fill:#555555;stroke:#555555;stroke-width:0.5;" x="229.4225" xlink:href="#md50a1fa920" y="15.3"/>
      </g>
     </g>
     <g id="text_5">
      <!-- 4 -->
      <g style="fill:#555555;" transform="translate(226.24125 258.1984375)scale(0.1 -0.1)">
       <use xlink:href="#BitstreamVeraSans-Roman-34"/>
      </g>
     </g>
    </g>
    <g id="xtick_6">
     <g id="line2d_16">
      <path clip-path="url(#p7844591656)" d="M 273.99375 242.6 
L 273.99375 15.3 
" style="fill:none;stroke:#ffffff;stroke-linecap:square;stroke-width:0.5;"/>
     </g>
     <g id="line2d_17">
      <g>
       <use style="fill:#555555;stroke:#555555;stroke-width:0.5;" x="273.99375" xlink:href="#m9d18128904" y="242.6"/>
      </g>
     </g>
     <g id="line2d_18">
      <g>
       <use style="fill:#555555;stroke:#555555;stroke-width:0.5;" x="273.99375" xlink:href="#md50a1fa920" y="15.3"/>
      </g>
     </g>
     <g id="text_6">
      <!-- 6 -->
      <defs>
       <path d="M 33.015625 40.375 
Q 26.375 40.375 22.484375 35.828125 
Q 18.609375 31.296875 18.609375 23.390625 
Q 18.609375 15.53125 22.484375 10.953125 
Q 26.375 6.390625 33.015625 6.390625 
Q 39.65625 6.390625 43.53125 10.953125 
Q 47.40625 15.53125 47.40625 23.390625 
Q 47.40625 31.296875 43.53125 35.828125 
Q 39.65625 40.375 33.015625 40.375 
M 52.59375 71.296875 
L 52.59375 62.3125 
Q 48.875 64.0625 45.09375 64.984375 
Q 41.3125 65.921875 37.59375 65.921875 
Q 27.828125 65.921875 22.671875 59.328125 
Q 17.53125 52.734375 16.796875 39.40625 
Q 19.671875 43.65625 24.015625 45.921875 
Q 28.375 48.1875 33.59375 48.1875 
Q 44.578125 48.1875 50.953125 41.515625 
Q 57.328125 34.859375 57.328125 23.390625 
Q 57.328125 12.15625 50.6875 5.359375 
Q 44.046875 -1.421875 33.015625 -1.421875 
Q 20.359375 -1.421875 13.671875 8.265625 
Q 6.984375 17.96875 6.984375 36.375 
Q 6.984375 53.65625 15.1875 63.9375 
Q 23.390625 74.21875 37.203125 74.21875 
Q 40.921875 74.21875 44.703125 73.484375 
Q 48.484375 72.75 52.59375 71.296875 
" id="BitstreamVeraSans-Roman-36"/>
      </defs>
      <g style="fill:#555555;" transform="translate(270.8125 258.1984375)scale(0.1 -0.1)">
       <use xlink:href="#BitstreamVeraSans-Roman-36"/>
      </g>
     </g>
    </g>
    <g id="text_7">
     <!-- x -->
     <defs>
      <path d="M 54.890625 54.6875 
L 35.109375 28.078125 
L 55.90625 0 
L 45.3125 0 
L 29.390625 21.484375 
L 13.484375 0 
L 2.875 0 
L 24.125 28.609375 
L 4.6875 54.6875 
L 15.28125 54.6875 
L 29.78125 35.203125 
L 44.28125 54.6875 
z
" id="BitstreamVeraSans-Roman-78"/>
     </defs>
     <g style="fill:#555555;" transform="translate(159.014375 274.39625)scale(0.12 -0.12)">
      <use xlink:href="#BitstreamVeraSans-Roman-78"/>
     </g>
    </g>
   </g>
   <g id="matplotlib.axis_2">
    <g id="ytick_1">
     <g id="line2d_19">
      <path clip-path="url(#p7844591656)" d="M 51.1375 242.6 
L 273.99375 242.6 
" style="fill:none;stroke:#ffffff;stroke-linecap:square;stroke-width:0.5;"/>
     </g>
     <g id="line2d_20">
      <defs>
       <path d="M 0 0 
L -4 0 
" id="m70734de797" style="stroke:#555555;stroke-width:0.5;"/>
      </defs>
      <g>
       <use style="fill:#555555;stroke:#555555;stroke-width:0.5;" x="51.1375" xlink:href="#m70734de797" y="242.6"/>
      </g>
     </g>
     <g id="line2d_21">
      <defs>
       <path d="M 0 0 
L 4 0 
" id="m699a021ed5" style="stroke:#555555;stroke-width:0.5;"/>
      </defs>
      <g>
       <use style="fill:#555555;stroke:#555555;stroke-width:0.5;" x="273.99375" xlink:href="#m699a021ed5" y="242.6"/>
      </g>
     </g>
     <g id="text_8">
      <!-- −1 -->
      <defs>
       <path d="M 12.40625 8.296875 
L 28.515625 8.296875 
L 28.515625 63.921875 
L 10.984375 60.40625 
L 10.984375 69.390625 
L 28.421875 72.90625 
L 38.28125 72.90625 
L 38.28125 8.296875 
L 54.390625 8.296875 
L 54.390625 0 
L 12.40625 0 
z
" id="BitstreamVeraSans-Roman-31"/>
      </defs>
      <g style="fill:#555555;" transform="translate(28.3953125 245.359375)scale(0.1 -0.1)">
       <use xlink:href="#BitstreamVeraSans-Roman-2212"/>
       <use x="83.7890625" xlink:href="#BitstreamVeraSans-Roman-31"/>
      </g>
     </g>
    </g>
    <g id="ytick_2">
     <g id="line2d_22">
      <path clip-path="url(#p7844591656)" d="M 51.1375 210.128571 
L 273.99375 210.128571 
" style="fill:none;stroke:#ffffff;stroke-linecap:square;stroke-width:0.5;"/>
     </g>
     <g id="line2d_23">
      <g>
       <use style="fill:#555555;stroke:#555555;stroke-width:0.5;" x="51.1375" xlink:href="#m70734de797" y="210.128571429"/>
      </g>
     </g>
     <g id="line2d_24">
      <g>
       <use style="fill:#555555;stroke:#555555;stroke-width:0.5;" x="273.99375" xlink:href="#m699a021ed5" y="210.128571429"/>
      </g>
     </g>
     <g id="text_9">
      <!-- 0 -->
      <g style="fill:#555555;" transform="translate(36.775 212.887946429)scale(0.1 -0.1)">
       <use xlink:href="#BitstreamVeraSans-Roman-30"/>
      </g>
     </g>
    </g>
    <g id="ytick_3">
     <g id="line2d_25">
      <path clip-path="url(#p7844591656)" d="M 51.1375 177.657143 
L 273.99375 177.657143 
" style="fill:none;stroke:#ffffff;stroke-linecap:square;stroke-width:0.5;"/>
     </g>
     <g id="line2d_26">
      <g>
       <use style="fill:#555555;stroke:#555555;stroke-width:0.5;" x="51.1375" xlink:href="#m70734de797" y="177.657142857"/>
      </g>
     </g>
     <g id="line2d_27">
      <g>
       <use style="fill:#555555;stroke:#555555;stroke-width:0.5;" x="273.99375" xlink:href="#m699a021ed5" y="177.657142857"/>
      </g>
     </g>
     <g id="text_10">
      <!-- 1 -->
      <g style="fill:#555555;" transform="translate(36.775 180.416517857)scale(0.1 -0.1)">
       <use xlink:href="#BitstreamVeraSans-Roman-31"/>
      </g>
     </g>
    </g>
    <g id="ytick_4">
     <g id="line2d_28">
      <path clip-path="url(#p7844591656)" d="M 51.1375 145.185714 
L 273.99375 145.185714 
" style="fill:none;stroke:#ffffff;stroke-linecap:square;stroke-width:0.5;"/>
     </g>
     <g id="line2d_29">
      <g>
       <use style="fill:#555555;stroke:#555555;stroke-width:0.5;" x="51.1375" xlink:href="#m70734de797" y="145.185714286"/>
      </g>
     </g>
     <g id="line2d_30">
      <g>
       <use style="fill:#555555;stroke:#555555;stroke-width:0.5;" x="273.99375" xlink:href="#m699a021ed5" y="145.185714286"/>
      </g>
     </g>
     <g id="text_11">
      <!-- 2 -->
      <g style="fill:#555555;" transform="translate(36.775 147.945089286)scale(0.1 -0.1)">
       <use xlink:href="#BitstreamVeraSans-Roman-32"/>
      </g>
     </g>
    </g>
    <g id="ytick_5">
     <g id="line2d_31">
      <path clip-path="url(#p7844591656)" d="M 51.1375 112.714286 
L 273.99375 112.714286 
" style="fill:none;stroke:#ffffff;stroke-linecap:square;stroke-width:0.5;"/>
     </g>
     <g id="line2d_32">
      <g>
       <use style="fill:#555555;stroke:#555555;stroke-width:0.5;" x="51.1375" xlink:href="#m70734de797" y="112.714285714"/>
      </g>
     </g>
     <g id="line2d_33">
      <g>
       <use style="fill:#555555;stroke:#555555;stroke-width:0.5;" x="273.99375" xlink:href="#m699a021ed5" y="112.714285714"/>
      </g>
     </g>
     <g id="text_12">
      <!-- 3 -->
      <defs>
       <path d="M 40.578125 39.3125 
Q 47.65625 37.796875 51.625 33 
Q 55.609375 28.21875 55.609375 21.1875 
Q 55.609375 10.40625 48.1875 4.484375 
Q 40.765625 -1.421875 27.09375 -1.421875 
Q 22.515625 -1.421875 17.65625 -0.515625 
Q 12.796875 0.390625 7.625 2.203125 
L 7.625 11.71875 
Q 11.71875 9.328125 16.59375 8.109375 
Q 21.484375 6.890625 26.8125 6.890625 
Q 36.078125 6.890625 40.9375 10.546875 
Q 45.796875 14.203125 45.796875 21.1875 
Q 45.796875 27.640625 41.28125 31.265625 
Q 36.765625 34.90625 28.71875 34.90625 
L 20.21875 34.90625 
L 20.21875 43.015625 
L 29.109375 43.015625 
Q 36.375 43.015625 40.234375 45.921875 
Q 44.09375 48.828125 44.09375 54.296875 
Q 44.09375 59.90625 40.109375 62.90625 
Q 36.140625 65.921875 28.71875 65.921875 
Q 24.65625 65.921875 20.015625 65.03125 
Q 15.375 64.15625 9.8125 62.3125 
L 9.8125 71.09375 
Q 15.4375 72.65625 20.34375 73.4375 
Q 25.25 74.21875 29.59375 74.21875 
Q 40.828125 74.21875 47.359375 69.109375 
Q 53.90625 64.015625 53.90625 55.328125 
Q 53.90625 49.265625 50.4375 45.09375 
Q 46.96875 40.921875 40.578125 39.3125 
" id="BitstreamVeraSans-Roman-33"/>
      </defs>
      <g style="fill:#555555;" transform="translate(36.775 115.473660714)scale(0.1 -0.1)">
       <use xlink:href="#BitstreamVeraSans-Roman-33"/>
      </g>
     </g>
    </g>
    <g id="ytick_6">
     <g id="line2d_34">
      <path clip-path="url(#p7844591656)" d="M 51.1375 80.242857 
L 273.99375 80.242857 
" style="fill:none;stroke:#ffffff;stroke-linecap:square;stroke-width:0.5;"/>
     </g>
     <g id="line2d_35">
      <g>
       <use style="fill:#555555;stroke:#555555;stroke-width:0.5;" x="51.1375" xlink:href="#m70734de797" y="80.2428571429"/>
      </g>
     </g>
     <g id="line2d_36">
      <g>
       <use style="fill:#555555;stroke:#555555;stroke-width:0.5;" x="273.99375" xlink:href="#m699a021ed5" y="80.2428571429"/>
      </g>
     </g>
     <g id="text_13">
      <!-- 4 -->
      <g style="fill:#555555;" transform="translate(36.775 83.0022321429)scale(0.1 -0.1)">
       <use xlink:href="#BitstreamVeraSans-Roman-34"/>
      </g>
     </g>
    </g>
    <g id="ytick_7">
     <g id="line2d_37">
      <path clip-path="url(#p7844591656)" d="M 51.1375 47.771429 
L 273.99375 47.771429 
" style="fill:none;stroke:#ffffff;stroke-linecap:square;stroke-width:0.5;"/>
     </g>
     <g id="line2d_38">
      <g>
       <use style="fill:#555555;stroke:#555555;stroke-width:0.5;" x="51.1375" xlink:href="#m70734de797" y="47.7714285714"/>
      </g>
     </g>
     <g id="line2d_39">
      <g>
       <use style="fill:#555555;stroke:#555555;stroke-width:0.5;" x="273.99375" xlink:href="#m699a021ed5" y="47.7714285714"/>
      </g>
     </g>
     <g id="text_14">
      <!-- 5 -->
      <defs>
       <path d="M 10.796875 72.90625 
L 49.515625 72.90625 
L 49.515625 64.59375 
L 19.828125 64.59375 
L 19.828125 46.734375 
Q 21.96875 47.46875 24.109375 47.828125 
Q 26.265625 48.1875 28.421875 48.1875 
Q 40.625 48.1875 47.75 41.5 
Q 54.890625 34.8125 54.890625 23.390625 
Q 54.890625 11.625 47.5625 5.09375 
Q 40.234375 -1.421875 26.90625 -1.421875 
Q 22.3125 -1.421875 17.546875 -0.640625 
Q 12.796875 0.140625 7.71875 1.703125 
L 7.71875 11.625 
Q 12.109375 9.234375 16.796875 8.0625 
Q 21.484375 6.890625 26.703125 6.890625 
Q 35.15625 6.890625 40.078125 11.328125 
Q 45.015625 15.765625 45.015625 23.390625 
Q 45.015625 31 40.078125 35.4375 
Q 35.15625 39.890625 26.703125 39.890625 
Q 22.75 39.890625 18.8125 39.015625 
Q 14.890625 38.140625 10.796875 36.28125 
z
" id="BitstreamVeraSans-Roman-35"/>
      </defs>
      <g style="fill:#555555;" transform="translate(36.775 50.5308035714)scale(0.1 -0.1)">
       <use xlink:href="#BitstreamVeraSans-Roman-35"/>
      </g>
     </g>
    </g>
    <g id="ytick_8">
     <g id="line2d_40">
      <path clip-path="url(#p7844591656)" d="M 51.1375 15.3 
L 273.99375 15.3 
" style="fill:none;stroke:#ffffff;stroke-linecap:square;stroke-width:0.5;"/>
     </g>
     <g id="line2d_41">
      <g>
       <use style="fill:#555555;stroke:#555555;stroke-width:0.5;" x="51.1375" xlink:href="#m70734de797" y="15.3"/>
      </g>
     </g>
     <g id="line2d_42">
      <g>
       <use style="fill:#555555;stroke:#555555;stroke-width:0.5;" x="273.99375" xlink:href="#m699a021ed5" y="15.3"/>
      </g>
     </g>
     <g id="text_15">
      <!-- 6 -->
      <g style="fill:#555555;" transform="translate(36.775 18.059375)scale(0.1 -0.1)">
       <use xlink:href="#BitstreamVeraSans-Roman-36"/>
      </g>
     </g>
    </g>
    <g id="text_16">
     <!-- y -->
     <defs>
      <path d="M 32.171875 -5.078125 
Q 28.375 -14.84375 24.75 -17.8125 
Q 21.140625 -20.796875 15.09375 -20.796875 
L 7.90625 -20.796875 
L 7.90625 -13.28125 
L 13.1875 -13.28125 
Q 16.890625 -13.28125 18.9375 -11.515625 
Q 21 -9.765625 23.484375 -3.21875 
L 25.09375 0.875 
L 2.984375 54.6875 
L 12.5 54.6875 
L 29.59375 11.921875 
L 46.6875 54.6875 
L 56.203125 54.6875 
z
" id="BitstreamVeraSans-Roman-79"/>
     </defs>
     <g style="fill:#555555;" transform="translate(20.8996875 132.50125)rotate(-90.0)scale(0.12 -0.12)">
      <use xlink:href="#BitstreamVeraSans-Roman-79"/>
     </g>
    </g>
   </g>
   <g id="PathCollection_1">
    <defs>
     <path d="M 0 2.236068 
C 0.593012 2.236068 1.161816 2.000462 1.581139 1.581139 
C 2.000462 1.161816 2.236068 0.593012 2.236068 0 
C 2.236068 -0.593012 2.000462 -1.161816 1.581139 -1.581139 
C 1.161816 -2.000462 0.593012 -2.236068 0 -2.236068 
C -0.593012 -2.236068 -1.161816 -2.000462 -1.581139 -1.581139 
C -2.000462 -1.161816 -2.236068 -0.593012 -2.236068 0 
C -2.236068 0.593012 -2.000462 1.161816 -1.581139 1.581139 
C -1.161816 2.000462 -0.593012 2.236068 0 2.236068 
z
" id="C0_0_75885d1268"/>
    </defs>
    <g clip-path="url(#p7844591656)">
     <use style="fill:#4169e1;" x="144.521816593" xlink:href="#C0_0_75885d1268" y="99.6493549362"/>
    </g>
    <g clip-path="url(#p7844591656)">
     <use style="fill:#4169e1;" x="172.411508377" xlink:href="#C0_0_75885d1268" y="112.727006102"/>
    </g>
    <g clip-path="url(#p7844591656)">
     <use style="fill:#4169e1;" x="188.25628088" xlink:href="#C0_0_75885d1268" y="86.4448511191"/>
    </g>
    <g clip-path="url(#p7844591656)">
     <use style="fill:#4169e1;" x="180.712477453" xlink:href="#C0_0_75885d1268" y="57.5650427977"/>
    </g>
    <g clip-path="url(#p7844591656)">
     <use style="fill:#4169e1;" x="155.58688862" xlink:href="#C0_0_75885d1268" y="79.8104362186"/>
    </g>
    <g clip-path="url(#p7844591656)">
     <use style="fill:#4169e1;" x="181.915727402" xlink:href="#C0_0_75885d1268" y="105.266580936"/>
    </g>
    <g clip-path="url(#p7844591656)">
     <use style="fill:#4169e1;" x="170.074422603" xlink:href="#C0_0_75885d1268" y="111.563403526"/>
    </g>
    <g clip-path="url(#p7844591656)">
     <use style="fill:#4169e1;" x="145.756424308" xlink:href="#C0_0_75885d1268" y="128.241202017"/>
    </g>
    <g clip-path="url(#p7844591656)">
     <use style="fill:#4169e1;" x="182.312701152" xlink:href="#C0_0_75885d1268" y="104.070102986"/>
    </g>
    <g clip-path="url(#p7844591656)">
     <use style="fill:#4169e1;" x="131.927632647" xlink:href="#C0_0_75885d1268" y="111.665595312"/>
    </g>
    <g clip-path="url(#p7844591656)">
     <use style="fill:#4169e1;" x="95.4412906479" xlink:href="#C0_0_75885d1268" y="164.460615982"/>
    </g>
    <g clip-path="url(#p7844591656)">
     <use style="fill:#4169e1;" x="140.307079259" xlink:href="#C0_0_75885d1268" y="113.082078883"/>
    </g>
    <g clip-path="url(#p7844591656)">
     <use style="fill:#4169e1;" x="129.22704537" xlink:href="#C0_0_75885d1268" y="118.781275628"/>
    </g>
    <g clip-path="url(#p7844591656)">
     <use style="fill:#4169e1;" x="174.725223518" xlink:href="#C0_0_75885d1268" y="85.734832365"/>
    </g>
    <g clip-path="url(#p7844591656)">
     <use style="fill:#4169e1;" x="193.427339812" xlink:href="#C0_0_75885d1268" y="76.0975891371"/>
    </g>
    <g clip-path="url(#p7844591656)">
     <use style="fill:#4169e1;" x="201.302567962" xlink:href="#C0_0_75885d1268" y="80.8703014075"/>
    </g>
    <g clip-path="url(#p7844591656)">
     <use style="fill:#4169e1;" x="142.79584325" xlink:href="#C0_0_75885d1268" y="116.441571148"/>
    </g>
    <g clip-path="url(#p7844591656)">
     <use style="fill:#4169e1;" x="155.000867445" xlink:href="#C0_0_75885d1268" y="135.208509019"/>
    </g>
    <g clip-path="url(#p7844591656)">
     <use style="fill:#4169e1;" x="226.993225417" xlink:href="#C0_0_75885d1268" y="84.3880159767"/>
    </g>
    <g clip-path="url(#p7844591656)">
     <use style="fill:#4169e1;" x="174.028560203" xlink:href="#C0_0_75885d1268" y="114.181090629"/>
    </g>
    <g clip-path="url(#p7844591656)">
     <use style="fill:#4169e1;" x="137.110059918" xlink:href="#C0_0_75885d1268" y="123.592740529"/>
    </g>
    <g clip-path="url(#p7844591656)">
     <use style="fill:#4169e1;" x="180.728795078" xlink:href="#C0_0_75885d1268" y="59.4488971281"/>
    </g>
    <g clip-path="url(#p7844591656)">
     <use style="fill:#4169e1;" x="122.08856732" xlink:href="#C0_0_75885d1268" y="100.718319235"/>
    </g>
    <g clip-path="url(#p7844591656)">
     <use style="fill:#4169e1;" x="173.05981285" xlink:href="#C0_0_75885d1268" y="130.068624203"/>
    </g>
    <g clip-path="url(#p7844591656)">
     <use style="fill:#4169e1;" x="174.338263792" xlink:href="#C0_0_75885d1268" y="110.126483485"/>
    </g>
    <g clip-path="url(#p7844591656)">
     <use style="fill:#4169e1;" x="198.888287756" xlink:href="#C0_0_75885d1268" y="120.448288136"/>
    </g>
    <g clip-path="url(#p7844591656)">
     <use style="fill:#4169e1;" x="96.9207981434" xlink:href="#C0_0_75885d1268" y="151.507994699"/>
    </g>
    <g clip-path="url(#p7844591656)">
     <use style="fill:#4169e1;" x="154.823635807" xlink:href="#C0_0_75885d1268" y="107.473267946"/>
    </g>
    <g clip-path="url(#p7844591656)">
     <use style="fill:#4169e1;" x="214.845689212" xlink:href="#C0_0_75885d1268" y="113.012017737"/>
    </g>
    <g clip-path="url(#p7844591656)">
     <use style="fill:#4169e1;" x="133.611260176" xlink:href="#C0_0_75885d1268" y="108.043604022"/>
    </g>
    <g clip-path="url(#p7844591656)">
     <use style="fill:#4169e1;" x="143.287818953" xlink:href="#C0_0_75885d1268" y="107.786871405"/>
    </g>
    <g clip-path="url(#p7844591656)">
     <use style="fill:#4169e1;" x="165.268323081" xlink:href="#C0_0_75885d1268" y="64.6535219582"/>
    </g>
    <g clip-path="url(#p7844591656)">
     <use style="fill:#4169e1;" x="113.142547377" xlink:href="#C0_0_75885d1268" y="166.234726639"/>
    </g>
    <g clip-path="url(#p7844591656)">
     <use style="fill:#4169e1;" x="152.282742908" xlink:href="#C0_0_75885d1268" y="84.9480386119"/>
    </g>
    <g clip-path="url(#p7844591656)">
     <use style="fill:#4169e1;" x="64.9947724723" xlink:href="#C0_0_75885d1268" y="211.000399726"/>
    </g>
    <g clip-path="url(#p7844591656)">
     <use style="fill:#4169e1;" x="194.128589631" xlink:href="#C0_0_75885d1268" y="137.019532579"/>
    </g>
    <g clip-path="url(#p7844591656)">
     <use style="fill:#4169e1;" x="177.032452307" xlink:href="#C0_0_75885d1268" y="54.8874826334"/>
    </g>
    <g clip-path="url(#p7844591656)">
     <use style="fill:#4169e1;" x="169.493877089" xlink:href="#C0_0_75885d1268" y="80.4421961232"/>
    </g>
    <g clip-path="url(#p7844591656)">
     <use style="fill:#4169e1;" x="159.120730668" xlink:href="#C0_0_75885d1268" y="83.0476876169"/>
    </g>
    <g clip-path="url(#p7844591656)">
     <use style="fill:#4169e1;" x="199.136758035" xlink:href="#C0_0_75885d1268" y="71.429956237"/>
    </g>
    <g clip-path="url(#p7844591656)">
     <use style="fill:#4169e1;" x="222.175432581" xlink:href="#C0_0_75885d1268" y="86.9351950175"/>
    </g>
    <g clip-path="url(#p7844591656)">
     <use style="fill:#4169e1;" x="150.535277059" xlink:href="#C0_0_75885d1268" y="120.671511229"/>
    </g>
    <g clip-path="url(#p7844591656)">
     <use style="fill:#4169e1;" x="94.9464526158" xlink:href="#C0_0_75885d1268" y="148.645103633"/>
    </g>
    <g clip-path="url(#p7844591656)">
     <use style="fill:#4169e1;" x="188.607544522" xlink:href="#C0_0_75885d1268" y="105.299090598"/>
    </g>
    <g clip-path="url(#p7844591656)">
     <use style="fill:#4169e1;" x="107.304411958" xlink:href="#C0_0_75885d1268" y="151.963175604"/>
    </g>
    <g clip-path="url(#p7844591656)">
     <use style="fill:#4169e1;" x="114.67701462" xlink:href="#C0_0_75885d1268" y="147.837064589"/>
    </g>
    <g clip-path="url(#p7844591656)">
     <use style="fill:#4169e1;" x="186.45853509" xlink:href="#C0_0_75885d1268" y="81.7678196729"/>
    </g>
    <g clip-path="url(#p7844591656)">
     <use style="fill:#4169e1;" x="180.69474233" xlink:href="#C0_0_75885d1268" y="100.786506127"/>
    </g>
    <g clip-path="url(#p7844591656)">
     <use style="fill:#4169e1;" x="152.005291435" xlink:href="#C0_0_75885d1268" y="90.3974641333"/>
    </g>
    <g clip-path="url(#p7844591656)">
     <use style="fill:#4169e1;" x="164.694072267" xlink:href="#C0_0_75885d1268" y="113.125600149"/>
    </g>
    <g clip-path="url(#p7844591656)">
     <use style="fill:#4169e1;" x="232.501230182" xlink:href="#C0_0_75885d1268" y="75.6214357144"/>
    </g>
    <g clip-path="url(#p7844591656)">
     <use style="fill:#4169e1;" x="178.383507445" xlink:href="#C0_0_75885d1268" y="71.1289515342"/>
    </g>
    <g clip-path="url(#p7844591656)">
     <use style="fill:#4169e1;" x="94.6357783307" xlink:href="#C0_0_75885d1268" y="138.491076533"/>
    </g>
    <g clip-path="url(#p7844591656)">
     <use style="fill:#4169e1;" x="131.565413081" xlink:href="#C0_0_75885d1268" y="107.849014013"/>
    </g>
    <g clip-path="url(#p7844591656)">
     <use style="fill:#4169e1;" x="145.914597955" xlink:href="#C0_0_75885d1268" y="100.385035169"/>
    </g>
    <g clip-path="url(#p7844591656)">
     <use style="fill:#4169e1;" x="176.753013381" xlink:href="#C0_0_75885d1268" y="94.2769235727"/>
    </g>
    <g clip-path="url(#p7844591656)">
     <use style="fill:#4169e1;" x="204.330681763" xlink:href="#C0_0_75885d1268" y="81.079392161"/>
    </g>
    <g clip-path="url(#p7844591656)">
     <use style="fill:#4169e1;" x="113.558890607" xlink:href="#C0_0_75885d1268" y="158.957164661"/>
    </g>
    <g clip-path="url(#p7844591656)">
     <use style="fill:#4169e1;" x="159.459846905" xlink:href="#C0_0_75885d1268" y="75.9315125591"/>
    </g>
    <g clip-path="url(#p7844591656)">
     <use style="fill:#4169e1;" x="111.324687857" xlink:href="#C0_0_75885d1268" y="143.29330431"/>
    </g>
    <g clip-path="url(#p7844591656)">
     <use style="fill:#4169e1;" x="172.772707516" xlink:href="#C0_0_75885d1268" y="107.156505036"/>
    </g>
    <g clip-path="url(#p7844591656)">
     <use style="fill:#4169e1;" x="122.223587349" xlink:href="#C0_0_75885d1268" y="148.244447114"/>
    </g>
    <g clip-path="url(#p7844591656)">
     <use style="fill:#4169e1;" x="162.944275338" xlink:href="#C0_0_75885d1268" y="141.683757266"/>
    </g>
    <g clip-path="url(#p7844591656)">
     <use style="fill:#4169e1;" x="145.61808322" xlink:href="#C0_0_75885d1268" y="117.674957982"/>
    </g>
    <g clip-path="url(#p7844591656)">
     <use style="fill:#4169e1;" x="173.839250622" xlink:href="#C0_0_75885d1268" y="123.724378646"/>
    </g>
    <g clip-path="url(#p7844591656)">
     <use style="fill:#4169e1;" x="136.65248686" xlink:href="#C0_0_75885d1268" y="106.463657057"/>
    </g>
    <g clip-path="url(#p7844591656)">
     <use style="fill:#4169e1;" x="189.974204604" xlink:href="#C0_0_75885d1268" y="96.1330342437"/>
    </g>
    <g clip-path="url(#p7844591656)">
     <use style="fill:#4169e1;" x="167.822771645" xlink:href="#C0_0_75885d1268" y="112.435010128"/>
    </g>
    <g clip-path="url(#p7844591656)">
     <use style="fill:#4169e1;" x="192.618516453" xlink:href="#C0_0_75885d1268" y="113.607951493"/>
    </g>
    <g clip-path="url(#p7844591656)">
     <use style="fill:#4169e1;" x="159.765460977" xlink:href="#C0_0_75885d1268" y="73.8165700227"/>
    </g>
    <g clip-path="url(#p7844591656)">
     <use style="fill:#4169e1;" x="164.078098577" xlink:href="#C0_0_75885d1268" y="109.576084916"/>
    </g>
    <g clip-path="url(#p7844591656)">
     <use style="fill:#4169e1;" x="142.001160607" xlink:href="#C0_0_75885d1268" y="134.617227598"/>
    </g>
    <g clip-path="url(#p7844591656)">
     <use style="fill:#4169e1;" x="218.064102885" xlink:href="#C0_0_75885d1268" y="64.4072250365"/>
    </g>
    <g clip-path="url(#p7844591656)">
     <use style="fill:#4169e1;" x="159.785529818" xlink:href="#C0_0_75885d1268" y="98.5179326366"/>
    </g>
    <g clip-path="url(#p7844591656)">
     <use style="fill:#4169e1;" x="123.495350361" xlink:href="#C0_0_75885d1268" y="68.0160479866"/>
    </g>
    <g clip-path="url(#p7844591656)">
     <use style="fill:#4169e1;" x="154.161958573" xlink:href="#C0_0_75885d1268" y="98.573628837"/>
    </g>
    <g clip-path="url(#p7844591656)">
     <use style="fill:#4169e1;" x="126.261230043" xlink:href="#C0_0_75885d1268" y="135.916546947"/>
    </g>
    <g clip-path="url(#p7844591656)">
     <use style="fill:#4169e1;" x="176.201000203" xlink:href="#C0_0_75885d1268" y="114.956719615"/>
    </g>
    <g clip-path="url(#p7844591656)">
     <use style="fill:#4169e1;" x="126.93244609" xlink:href="#C0_0_75885d1268" y="128.831696914"/>
    </g>
    <g clip-path="url(#p7844591656)">
     <use style="fill:#4169e1;" x="208.415337765" xlink:href="#C0_0_75885d1268" y="61.6086867142"/>
    </g>
    <g clip-path="url(#p7844591656)">
     <use style="fill:#4169e1;" x="193.350593697" xlink:href="#C0_0_75885d1268" y="82.5649876816"/>
    </g>
    <g clip-path="url(#p7844591656)">
     <use style="fill:#4169e1;" x="166.268444174" xlink:href="#C0_0_75885d1268" y="130.727711539"/>
    </g>
    <g clip-path="url(#p7844591656)">
     <use style="fill:#4169e1;" x="128.003654912" xlink:href="#C0_0_75885d1268" y="142.750949614"/>
    </g>
    <g clip-path="url(#p7844591656)">
     <use style="fill:#4169e1;" x="157.311212797" xlink:href="#C0_0_75885d1268" y="125.855533058"/>
    </g>
    <g clip-path="url(#p7844591656)">
     <use style="fill:#4169e1;" x="162.079149318" xlink:href="#C0_0_75885d1268" y="56.6359783607"/>
    </g>
    <g clip-path="url(#p7844591656)">
     <use style="fill:#4169e1;" x="257.082056423" xlink:href="#C0_0_75885d1268" y="29.4176794196"/>
    </g>
    <g clip-path="url(#p7844591656)">
     <use style="fill:#4169e1;" x="153.416831413" xlink:href="#C0_0_75885d1268" y="48.165017526"/>
    </g>
    <g clip-path="url(#p7844591656)">
     <use style="fill:#4169e1;" x="182.706157538" xlink:href="#C0_0_75885d1268" y="80.5948798603"/>
    </g>
    <g clip-path="url(#p7844591656)">
     <use style="fill:#4169e1;" x="173.847025274" xlink:href="#C0_0_75885d1268" y="91.8505784961"/>
    </g>
    <g clip-path="url(#p7844591656)">
     <use style="fill:#4169e1;" x="171.252010224" xlink:href="#C0_0_75885d1268" y="85.5693798406"/>
    </g>
    <g clip-path="url(#p7844591656)">
     <use style="fill:#4169e1;" x="221.866510625" xlink:href="#C0_0_75885d1268" y="86.9720432069"/>
    </g>
    <g clip-path="url(#p7844591656)">
     <use style="fill:#4169e1;" x="152.883094308" xlink:href="#C0_0_75885d1268" y="161.459381104"/>
    </g>
    <g clip-path="url(#p7844591656)">
     <use style="fill:#4169e1;" x="182.329841925" xlink:href="#C0_0_75885d1268" y="124.967437519"/>
    </g>
    <g clip-path="url(#p7844591656)">
     <use style="fill:#4169e1;" x="178.405031666" xlink:href="#C0_0_75885d1268" y="76.4291692527"/>
    </g>
    <g clip-path="url(#p7844591656)">
     <use style="fill:#4169e1;" x="133.498372947" xlink:href="#C0_0_75885d1268" y="118.387219432"/>
    </g>
    <g clip-path="url(#p7844591656)">
     <use style="fill:#4169e1;" x="178.241562196" xlink:href="#C0_0_75885d1268" y="78.252246716"/>
    </g>
    <g clip-path="url(#p7844591656)">
     <use style="fill:#4169e1;" x="172.358383117" xlink:href="#C0_0_75885d1268" y="89.7737030269"/>
    </g>
    <g clip-path="url(#p7844591656)">
     <use style="fill:#4169e1;" x="153.505306913" xlink:href="#C0_0_75885d1268" y="120.2524419"/>
    </g>
    <g clip-path="url(#p7844591656)">
     <use style="fill:#4169e1;" x="152.744501727" xlink:href="#C0_0_75885d1268" y="105.592219071"/>
    </g>
    <g clip-path="url(#p7844591656)">
     <use style="fill:#4169e1;" x="134.746608324" xlink:href="#C0_0_75885d1268" y="139.230981353"/>
    </g>
   </g>
   <g id="patch_3">
    <path d="M 51.1375 15.3 
L 273.99375 15.3 
" style="fill:none;stroke:#ffffff;stroke-linecap:square;stroke-linejoin:miter;"/>
   </g>
   <g id="patch_4">
    <path d="M 273.99375 242.6 
L 273.99375 15.3 
" style="fill:none;stroke:#ffffff;stroke-linecap:square;stroke-linejoin:miter;"/>
   </g>
   <g id="patch_5">
    <path d="M 51.1375 242.6 
L 273.99375 242.6 
" style="fill:none;stroke:#ffffff;stroke-linecap:square;stroke-linejoin:miter;"/>
   </g>
   <g id="patch_6">
    <path d="M 51.1375 242.6 
L 51.1375 15.3 
" style="fill:none;stroke:#ffffff;stroke-linecap:square;stroke-linejoin:miter;"/>
   </g>
  </g>
 </g>
 <defs>
  <clipPath id="p7844591656">
   <rect height="227.3" width="222.85625" x="51.1375" y="15.3"/>
  </clipPath>
 </defs>
</svg>
